<svg width="275" height="37" viewBox="0 0 275 37" fill="none" xmlns="http://www.w3.org/2000/svg">
<path d="M270 29.356V25H274.136V29.356H270Z" fill="#F13024"/>
<path d="M9.82706 10.0112C9.41169 10.0112 9.03409 9.95459 8.69424 9.84131C8.36384 9.71859 8.08064 9.55811 7.84464 9.35986C7.60863 9.15218 7.42455 8.91618 7.29239 8.65186C7.16967 8.37809 7.10831 8.09017 7.10831 7.78809C7.10831 7.47656 7.16967 7.18864 7.29239 6.92432C7.42455 6.65055 7.60863 6.41455 7.84464 6.21631C8.08064 6.01807 8.36384 5.8623 8.69424 5.74902C9.03409 5.6263 9.41169 5.56494 9.82706 5.56494C10.2519 5.56494 10.6295 5.6263 10.9599 5.74902C11.2997 5.8623 11.5876 6.01807 11.8236 6.21631C12.0596 6.41455 12.239 6.65055 12.3617 6.92432C12.4939 7.18864 12.56 7.47656 12.56 7.78809C12.56 8.09017 12.4939 8.37809 12.3617 8.65186C12.239 8.91618 12.0596 9.15218 11.8236 9.35986C11.5876 9.55811 11.2997 9.71859 10.9599 9.84131C10.6295 9.95459 10.2519 10.0112 9.82706 10.0112ZM7.73135 12.291H11.9228V26.4937C11.9228 27.3244 11.885 28.0796 11.8095 28.7593C11.7434 29.4295 11.6254 30.0526 11.4555 30.6284C11.295 31.2043 11.0732 31.7424 10.7899 32.2427C10.5162 32.743 10.1716 33.2244 9.75626 33.687C9.34089 34.1496 8.84529 34.6074 8.26944 35.0605C7.69359 35.5231 7.02807 36.0046 6.27286 36.5049L4.7294 32.9507C5.31469 32.5164 5.80085 32.0869 6.1879 31.6621C6.57494 31.2373 6.88174 30.7936 7.10831 30.3311C7.33487 29.8685 7.49535 29.3729 7.58975 28.8442C7.68415 28.3156 7.73135 27.735 7.73135 27.1025V12.291ZM22.2336 12.2769H26.4109V20.4331C26.4109 21.2072 26.4958 21.9152 26.6657 22.5571C26.8357 23.1896 27.1236 23.7324 27.5295 24.1855C27.9449 24.6387 28.4924 24.9927 29.1721 25.2476C29.8612 25.493 30.7156 25.6157 31.7351 25.6157C32.2165 25.6157 32.7027 25.5638 33.1936 25.46C33.6939 25.3561 34.1706 25.2145 34.6238 25.0352C35.0769 24.8464 35.497 24.6245 35.884 24.3696C36.2805 24.1147 36.6203 23.8363 36.9035 23.5342V12.2769H41.0949V29H36.9035V27.5698C35.8746 28.1834 34.8409 28.6224 33.8025 28.8867C32.7641 29.151 31.7776 29.2832 30.843 29.2832C29.3137 29.2832 28.0015 29.0991 26.9065 28.731C25.8209 28.3628 24.9288 27.8294 24.2302 27.1309C23.5411 26.4229 23.036 25.5591 22.7151 24.5396C22.3941 23.5106 22.2336 22.34 22.2336 21.0278V12.2769ZM50.0606 20.7163C50.0606 19.3853 50.3108 18.1864 50.8111 17.1196C51.3114 16.0435 52.0005 15.1278 52.8785 14.3726C53.7658 13.6079 54.8137 13.0226 56.022 12.6167C57.2398 12.2013 58.5567 11.9937 59.9727 11.9937C60.5769 11.9937 61.1716 12.0314 61.7569 12.1069C62.3516 12.1825 62.918 12.2863 63.4561 12.4185C64.0036 12.5506 64.5134 12.7111 64.9854 12.8999C65.4668 13.0793 65.8916 13.2775 66.2598 13.4946V5.5083H70.4512V29H66.2598V27.4282C65.8916 27.6831 65.4574 27.9238 64.9571 28.1504C64.4568 28.377 63.9187 28.5752 63.3428 28.7451C62.767 28.915 62.1675 29.0472 61.5445 29.1416C60.9309 29.2454 60.322 29.2974 59.7178 29.2974C58.3018 29.2974 56.9991 29.0897 55.8096 28.6743C54.6296 28.259 53.6148 27.6737 52.7652 26.9185C51.9156 26.1632 51.25 25.2617 50.7686 24.2139C50.2966 23.1566 50.0606 21.9907 50.0606 20.7163ZM54.4644 20.7163C54.4644 21.3866 54.5966 22.019 54.8609 22.6138C55.1346 23.2085 55.5217 23.7324 56.022 24.1855C56.5318 24.6292 57.1407 24.9832 57.8487 25.2476C58.5661 25.5024 59.3685 25.6299 60.2559 25.6299C60.8223 25.6299 61.3887 25.578 61.9551 25.4741C62.5215 25.3608 63.0643 25.2051 63.5835 25.0068C64.1122 24.8086 64.6031 24.5679 65.0562 24.2847C65.5188 24.0015 65.92 23.6852 66.2598 23.3359V17.5444C65.835 17.2046 65.3866 16.9167 64.9146 16.6807C64.4426 16.4447 63.9611 16.2511 63.4703 16.1001C62.9794 15.9491 62.4838 15.8405 61.9834 15.7744C61.4831 15.6989 60.997 15.6611 60.5249 15.6611C59.5621 15.6611 58.703 15.7933 57.9478 16.0576C57.202 16.3125 56.5695 16.6665 56.0503 17.1196C55.5406 17.5728 55.1488 18.1061 54.875 18.7197C54.6013 19.3333 54.4644 19.9989 54.4644 20.7163ZM81.1869 23.874C82.3197 24.5537 83.5658 25.054 84.9252 25.375C86.2845 25.696 87.677 25.8564 89.1024 25.8564C90.0653 25.8564 90.8677 25.7904 91.5096 25.6582C92.1516 25.526 92.666 25.3561 93.0531 25.1484C93.4401 24.9408 93.7139 24.7048 93.8744 24.4404C94.0349 24.1761 94.1151 23.9071 94.1151 23.6333C94.1151 23.2368 93.9405 22.897 93.5912 22.6138C93.2513 22.3306 92.6849 22.189 91.892 22.189C91.5238 22.189 91.1273 22.2126 90.7025 22.2598C90.2777 22.307 89.8293 22.3589 89.3573 22.4155C88.8947 22.4627 88.4086 22.5099 87.8988 22.5571C87.3985 22.6043 86.8887 22.6279 86.3695 22.6279C85.2367 22.6279 84.2691 22.5052 83.4667 22.2598C82.6737 22.0143 82.0271 21.6792 81.5267 21.2544C81.0264 20.8296 80.663 20.3293 80.4364 19.7534C80.2098 19.1681 80.0965 18.5404 80.0965 17.8701C80.0965 17.0205 80.2948 16.237 80.6913 15.5195C81.0878 14.8021 81.6542 14.1838 82.3905 13.6646C83.1268 13.1359 84.0142 12.7253 85.0526 12.4326C86.1005 12.14 87.2663 11.9937 88.5502 11.9937C89.2204 11.9937 89.919 12.0361 90.6459 12.1211C91.3822 12.1966 92.1044 12.3005 92.8124 12.4326C93.5204 12.5648 94.2001 12.7205 94.8514 12.8999C95.5028 13.0698 96.0786 13.2539 96.579 13.4521L95.2621 16.709C94.1953 16.3125 93.1286 16.001 92.0619 15.7744C91.0046 15.5384 89.9143 15.4204 88.7909 15.4204C88.0074 15.4204 87.3418 15.4818 86.7943 15.6045C86.2562 15.7178 85.8173 15.8735 85.4774 16.0718C85.1376 16.2606 84.8874 16.4824 84.7269 16.7373C84.5759 16.9827 84.5004 17.2424 84.5004 17.5161C84.5004 17.7144 84.5381 17.8937 84.6136 18.0542C84.6986 18.2147 84.8308 18.3563 85.0101 18.479C85.1989 18.5923 85.4396 18.682 85.7323 18.748C86.0344 18.8047 86.4025 18.833 86.8368 18.833C87.2333 18.833 87.6534 18.8094 88.097 18.7622C88.5407 18.715 89.0033 18.6678 89.4847 18.6206C89.9662 18.564 90.4618 18.512 90.9715 18.4648C91.4908 18.4176 92.0194 18.394 92.5575 18.394C93.5581 18.394 94.4313 18.512 95.1771 18.748C95.9323 18.984 96.5554 19.3145 97.0463 19.7393C97.5371 20.1641 97.9053 20.6644 98.1507 21.2402C98.3962 21.8161 98.5189 22.4438 98.5189 23.1235C98.5189 24.0015 98.316 24.818 97.91 25.5732C97.5041 26.3285 96.8999 26.9845 96.0975 27.5415C95.2951 28.089 94.2945 28.5186 93.0956 28.8301C91.9061 29.1416 90.5279 29.2974 88.9608 29.2974C87.9979 29.2974 87.0681 29.236 86.1713 29.1133C85.2744 29 84.4201 28.8442 83.6083 28.646C82.7964 28.4383 82.0318 28.1976 81.3143 27.9238C80.6063 27.6501 79.9597 27.3574 79.3744 27.0459L81.1869 23.874ZM106.224 20.6455C106.224 19.4466 106.465 18.3232 106.946 17.2754C107.437 16.2275 108.131 15.3118 109.028 14.5283C109.934 13.7448 111.025 13.1265 112.299 12.6733C113.583 12.2202 115.022 11.9937 116.618 11.9937C118.213 11.9937 119.648 12.2202 120.923 12.6733C122.206 13.1265 123.297 13.7448 124.194 14.5283C125.1 15.3118 125.794 16.2275 126.275 17.2754C126.766 18.3232 127.011 19.4466 127.011 20.6455C127.011 21.8444 126.766 22.9678 126.275 24.0156C125.794 25.0635 125.1 25.9792 124.194 26.7627C123.297 27.5462 122.206 28.1646 120.923 28.6177C119.648 29.0708 118.213 29.2974 116.618 29.2974C115.022 29.2974 113.583 29.0708 112.299 28.6177C111.025 28.1646 109.934 27.5462 109.028 26.7627C108.131 25.9792 107.437 25.0635 106.946 24.0156C106.465 22.9678 106.224 21.8444 106.224 20.6455ZM110.628 20.6455C110.628 21.3158 110.76 21.953 111.025 22.5571C111.298 23.1519 111.69 23.6805 112.2 24.1431C112.719 24.5962 113.347 24.9596 114.083 25.2334C114.829 25.4977 115.674 25.6299 116.618 25.6299C117.562 25.6299 118.402 25.4977 119.138 25.2334C119.884 24.9596 120.512 24.5962 121.022 24.1431C121.541 23.6805 121.933 23.1519 122.197 22.5571C122.471 21.953 122.608 21.3158 122.608 20.6455C122.608 19.9753 122.471 19.3381 122.197 18.7339C121.933 18.1297 121.541 17.6011 121.022 17.1479C120.512 16.6854 119.884 16.3219 119.138 16.0576C118.402 15.7839 117.562 15.647 116.618 15.647C115.674 15.647 114.829 15.7839 114.083 16.0576C113.347 16.3219 112.719 16.6854 112.2 17.1479C111.69 17.6011 111.298 18.1297 111.025 18.7339C110.76 19.3381 110.628 19.9753 110.628 20.6455ZM136.175 12.291H140.367V13.707C141.481 13.0745 142.543 12.6309 143.553 12.376C144.572 12.1211 145.568 11.9937 146.541 11.9937C147.815 11.9937 148.995 12.1825 150.081 12.5601C151.166 12.9282 152.105 13.4805 152.898 14.2168C153.691 14.9531 154.31 15.8735 154.753 16.978C155.207 18.0731 155.433 19.3428 155.433 20.7871V29H151.256V21.4668C151.256 20.5511 151.124 19.7345 150.859 19.0171C150.604 18.2902 150.232 17.6813 149.741 17.1904C149.259 16.6901 148.669 16.3125 147.971 16.0576C147.282 15.7933 146.507 15.6611 145.648 15.6611C145.195 15.6611 144.728 15.7083 144.247 15.8027C143.775 15.8971 143.307 16.034 142.845 16.2134C142.392 16.3833 141.953 16.6004 141.528 16.8647C141.103 17.1196 140.716 17.4123 140.367 17.7427V29H136.175V12.291ZM180.076 12.291H184.268V14.6982C185.193 14.0091 186.17 13.4144 187.199 12.9141C188.228 12.4137 189.252 12.0314 190.272 11.7671L191.504 15.6045C189.889 15.765 188.469 16.1284 187.241 16.6948C186.024 17.2518 185.032 18.04 184.268 19.0596V29H180.076V12.291ZM201.772 10.0112C201.357 10.0112 200.979 9.95459 200.639 9.84131C200.309 9.71859 200.026 9.55811 199.79 9.35986C199.554 9.15218 199.369 8.91618 199.237 8.65186C199.115 8.37809 199.053 8.09017 199.053 7.78809C199.053 7.47656 199.115 7.18864 199.237 6.92432C199.369 6.65055 199.554 6.41455 199.79 6.21631C200.026 6.01807 200.309 5.8623 200.639 5.74902C200.979 5.6263 201.357 5.56494 201.772 5.56494C202.197 5.56494 202.574 5.6263 202.905 5.74902C203.245 5.8623 203.533 6.01807 203.769 6.21631C204.005 6.41455 204.184 6.65055 204.307 6.92432C204.439 7.18864 204.505 7.47656 204.505 7.78809C204.505 8.09017 204.439 8.37809 204.307 8.65186C204.184 8.91618 204.005 9.15218 203.769 9.35986C203.533 9.55811 203.245 9.71859 202.905 9.84131C202.574 9.95459 202.197 10.0112 201.772 10.0112ZM199.676 12.291H203.868V29H199.676V12.291ZM213.386 23.7324C213.386 22.93 213.56 22.1984 213.909 21.5376C214.259 20.8768 214.783 20.3104 215.481 19.8384C216.18 19.3569 217.048 18.9888 218.087 18.7339C219.135 18.4696 220.352 18.3374 221.74 18.3374C222.769 18.3374 223.85 18.4129 224.983 18.564C226.125 18.715 227.3 18.9463 228.509 19.2578C228.461 18.7292 228.301 18.243 228.027 17.7993C227.753 17.3462 227.371 16.9591 226.88 16.6382C226.399 16.3078 225.813 16.0529 225.124 15.8735C224.445 15.6942 223.671 15.6045 222.802 15.6045C222.33 15.6045 221.811 15.6328 221.244 15.6895C220.678 15.7461 220.093 15.8311 219.489 15.9443C218.884 16.0576 218.285 16.1992 217.69 16.3691C217.105 16.5391 216.557 16.742 216.048 16.978L214.773 13.5371C215.406 13.3105 216.081 13.1029 216.798 12.9141C217.525 12.7253 218.266 12.5648 219.021 12.4326C219.776 12.291 220.532 12.1825 221.287 12.1069C222.042 12.0314 222.774 11.9937 223.482 11.9937C226.606 11.9937 228.929 12.7913 230.449 14.3867C231.968 15.9821 232.728 18.4271 232.728 21.7217V29H228.537V27.4282C228.103 27.6831 227.626 27.9238 227.107 28.1504C226.597 28.377 226.04 28.5752 225.436 28.7451C224.832 28.915 224.18 29.0472 223.482 29.1416C222.793 29.2454 222.061 29.2974 221.287 29.2974C219.984 29.2974 218.837 29.1558 217.846 28.8726C216.864 28.5894 216.043 28.1976 215.382 27.6973C214.721 27.1969 214.221 26.6117 213.881 25.9414C213.551 25.2617 213.386 24.5254 213.386 23.7324ZM217.803 23.5908C217.803 23.8646 217.874 24.1289 218.016 24.3838C218.158 24.6292 218.384 24.8511 218.696 25.0493C219.007 25.2381 219.404 25.3939 219.885 25.5166C220.376 25.6299 220.966 25.6865 221.655 25.6865C222.391 25.6865 223.104 25.6204 223.793 25.4883C224.482 25.3561 225.124 25.1815 225.719 24.9644C226.314 24.7472 226.852 24.4971 227.333 24.2139C227.815 23.9307 228.216 23.638 228.537 23.3359V22.5996C227.895 22.4202 227.258 22.2692 226.625 22.1465C226.002 22.0238 225.403 21.9294 224.827 21.8633C224.261 21.7878 223.722 21.7358 223.213 21.7075C222.712 21.6792 222.273 21.665 221.896 21.665C221.112 21.665 220.461 21.717 219.942 21.8208C219.422 21.9246 219.002 22.0662 218.681 22.2456C218.36 22.4155 218.134 22.6185 218.002 22.8545C217.87 23.0905 217.803 23.3359 217.803 23.5908ZM243.209 12.291H247.4V13.707C248.514 13.0745 249.576 12.6309 250.587 12.376C251.606 12.1211 252.602 11.9937 253.574 11.9937C254.849 11.9937 256.029 12.1825 257.114 12.5601C258.2 12.9282 259.139 13.4805 259.932 14.2168C260.725 14.9531 261.344 15.8735 261.787 16.978C262.24 18.0731 262.467 19.3428 262.467 20.7871V29H258.29V21.4668C258.29 20.5511 258.157 19.7345 257.893 19.0171C257.638 18.2902 257.265 17.6813 256.775 17.1904C256.293 16.6901 255.703 16.3125 255.005 16.0576C254.315 15.7933 253.541 15.6611 252.682 15.6611C252.229 15.6611 251.762 15.7083 251.28 15.8027C250.808 15.8971 250.341 16.034 249.879 16.2134C249.425 16.3833 248.986 16.6004 248.562 16.8647C248.137 17.1196 247.75 17.4123 247.4 17.7427V29H243.209V12.291Z" fill="white"/>
</svg>
